<?xml version="1.0" encoding="iso-8859-1"?>
<!-- Generator: Adobe Illustrator 19.0.0, SVG Export Plug-In . SVG Version: 6.00 Build 0)  -->
<svg version="1.1" id="Layer_1" xmlns="http://www.w3.org/2000/svg" xmlns:xlink="http://www.w3.org/1999/xlink" x="0px" y="0px"
	 viewBox="0 0 512 512" style="enable-background:new 0 0 512 512;" xml:space="preserve">
<path style="fill:#7DDCD4;" d="M502.166,185.505C471.552,78.402,372.934,0,256,0C114.615,0,0,114.616,0,256
	c0,116.934,78.402,215.552,185.505,246.166L502.166,185.505z"/>
<path style="fill:#02C8A7;" d="M512,256c0-24.451-3.433-48.099-9.834-70.495L389.009,72.348l-12.8,9.461l-31.722-31.722
	L122.991,439.652l62.514,62.514C207.901,508.567,231.549,512,256,512C397.385,512,512,397.384,512,256z"/>
<polygon style="fill:#FEF2CC;" points="256,50.087 272.854,139.13 167.513,139.13 167.513,50.087 "/>
<rect x="256" y="50.087" style="fill:#FDE59A;" width="88.487" height="89.043"/>
<polygon style="fill:#FFFFFF;" points="256,72.348 281.333,360.626 122.991,338.365 122.991,72.348 "/>
<polygon style="fill:#FEF2CC;" points="389.009,72.348 389.009,338.365 256,360.626 256,72.348 "/>
<polygon style="fill:#263230;" points="389.009,338.365 389.009,439.652 307.757,439.652 233.739,389.009 256,338.365 "/>
<polygon style="fill:#4C6460;" points="256,338.365 256,389.009 204.243,439.652 122.991,439.652 122.991,338.365 "/>
<polygon style="fill:#FEF2CC;" points="226.504,153.6 204.243,153.6 193.113,124.104 204.243,94.609 226.504,94.609 
	237.635,124.104 "/>
<rect x="145.252" y="94.609" style="fill:#B1EAE5;" width="58.991" height="58.991"/>
<polygon style="fill:#FDE59A;" points="307.757,153.6 285.496,153.6 274.365,124.104 285.496,94.609 307.757,94.609 
	318.887,124.104 "/>
<polygon style="fill:#7DDCD4;" points="256,94.609 243.253,124.104 256,153.6 285.496,153.6 285.496,94.609 "/>
<rect x="226.504" y="94.609" style="fill:#B1EAE5;" width="29.496" height="58.991"/>
<rect x="307.757" y="94.609" style="fill:#7DDCD4;" width="58.991" height="58.991"/>
<polygon style="fill:#FEF2CC;" points="226.504,234.852 204.243,234.852 193.113,205.357 204.243,175.861 226.504,175.861 
	237.635,205.357 "/>
<rect x="145.252" y="175.861" style="fill:#B1EAE5;" width="58.991" height="58.991"/>
<polygon style="fill:#FDE59A;" points="307.757,234.852 285.496,234.852 274.365,205.357 285.496,175.861 307.757,175.861 
	318.887,205.357 "/>
<polygon style="fill:#7DDCD4;" points="256,175.861 243.253,205.357 256,234.852 285.496,234.852 285.496,175.861 "/>
<rect x="226.504" y="175.861" style="fill:#B1EAE5;" width="29.496" height="58.991"/>
<rect x="307.757" y="175.861" style="fill:#7DDCD4;" width="58.991" height="58.991"/>
<polygon style="fill:#FEF2CC;" points="226.504,316.104 204.243,316.104 193.113,286.609 204.243,257.113 226.504,257.113 
	237.635,286.609 "/>
<rect x="145.252" y="257.113" style="fill:#B1EAE5;" width="58.991" height="58.991"/>
<polygon style="fill:#FDE59A;" points="307.757,316.104 285.496,316.104 274.365,286.609 285.496,257.113 307.757,257.113 
	318.887,286.609 "/>
<polygon style="fill:#7DDCD4;" points="256,257.113 243.253,286.609 256,316.104 285.496,316.104 285.496,257.113 "/>
<rect x="226.504" y="257.113" style="fill:#B1EAE5;" width="29.496" height="58.991"/>
<polygon style="fill:#4C6460;" points="307.757,360.626 285.496,360.626 263.235,400.139 285.496,439.652 307.757,439.652 "/>
<polygon style="fill:#7DDCD4;" points="256,360.626 243.253,400.139 256,439.652 285.496,439.652 285.496,360.626 "/>
<polygon style="fill:#889391;" points="226.504,360.626 204.243,360.626 204.243,439.652 226.504,439.652 248.765,400.139 "/>
<rect x="226.504" y="360.626" style="fill:#B1EAE5;" width="29.496" height="79.026"/>
<rect x="307.757" y="257.113" style="fill:#7DDCD4;" width="58.991" height="58.991"/>
<g>
</g>
<g>
</g>
<g>
</g>
<g>
</g>
<g>
</g>
<g>
</g>
<g>
</g>
<g>
</g>
<g>
</g>
<g>
</g>
<g>
</g>
<g>
</g>
<g>
</g>
<g>
</g>
<g>
</g>
</svg>
